<svg width="20" height="20" viewBox="0 0 20 20" fill="none" xmlns="http://www.w3.org/2000/svg">
<path fill-rule="evenodd" clip-rule="evenodd" d="M5.12318 7.95116C4.52295 4.95002 6.81842 2.14999 9.87899 2.14999H10.4998C13.1864 2.14999 15.3498 4.35883 15.3498 7.02932C15.3498 8.52269 14.6614 9.95114 13.4774 10.872L10.9077 12.8707C10.8711 12.8991 10.8498 12.9428 10.8498 12.9891V13.5C10.8498 13.9694 10.4692 14.35 9.99978 14.35C9.53033 14.35 9.14978 13.9694 9.14978 13.5V12.9891C9.14978 12.4182 9.41335 11.8793 9.86399 11.5288L12.4337 9.53012C13.1984 8.93534 13.6498 8.00467 13.6498 7.02932C13.6498 5.28153 12.2314 3.84999 10.4998 3.84999H9.87899C7.8912 3.84999 6.40032 5.66857 6.79016 7.61776L6.83327 7.83329C6.92533 8.29362 6.6268 8.74142 6.16647 8.83349C5.70615 8.92555 5.25835 8.62702 5.16628 8.16669L5.12318 7.95116Z" fill="black"/>
<circle cx="9.9998" cy="16.7" r="0.6" stroke="black" stroke-width="1.2"/>
</svg>
